<?xml version="1.0" encoding="UTF-8"?> <svg xmlns="http://www.w3.org/2000/svg" width="100" height="100" viewBox="0 0 100 100" fill="none"><rect width="100" height="100" fill="white"></rect><g clip-path="url(#clip0_8467_15308)"><path d="M64.6391 57.2753C64.6391 57.2753 60.8346 56.9794 60.8346 52.9067V46.3972H60.785C60.7022 40.4969 56.1038 35.7279 50.4797 35.7279C44.7894 35.7453 40.1579 40.5838 40.1579 46.5712V46.5886C40.1579 52.5237 44.7564 57.3449 50.3804 57.3972C50.4135 57.3972 64.5729 57.3797 64.5729 57.3797C61.397 61.9921 56.7488 65.0554 50.4135 65.0206L41.0181 65.0379C40.191 65.0379 39.397 65.3686 38.785 65.9778L32.7143 72V46.5016C32.7143 36.2848 40.6045 28 50.3143 28C60.0241 28 67.9143 36.2848 67.9143 46.5016C67.9143 50.5222 66.7068 54.2469 64.6391 57.2753Z" fill="#303038"></path></g><defs><clipPath id="clip0_8467_15308"><rect width="44" height="44" fill="white" transform="translate(28 28)"></rect></clipPath></defs></svg> 