<svg width="139" height="20" viewBox="0 0 139 20" fill="none" xmlns="http://www.w3.org/2000/svg">
<g clip-path="url(#clip0_8843_15818)">
<path fill-rule="evenodd" clip-rule="evenodd" d="M15.467 0C14.9737 0 14.5674 0.406976 14.4804 0.901162C14.0741 2.99419 12.2169 4.56395 10.0115 4.56395C7.80606 4.56395 5.97787 2.99419 5.54259 0.901162C5.45553 0.406976 5.04927 0 4.55595 0H0.899582C0.406263 0 0 0.406976 0 0.901162V4.53488C0 5.02907 0.406263 5.43605 0.899582 5.52326C2.98894 5.93023 4.55595 7.7907 4.55595 10C4.55595 12.2093 2.98894 14.0407 0.899582 14.4767C0.406263 14.564 0 14.9709 0 15.4651V19.0988C0 19.593 0.406263 20 0.899582 20H4.52693C5.02025 20 5.42651 19.593 5.51357 19.0988C5.91983 17.0058 7.77704 15.436 9.98247 15.436C12.1879 15.436 14.0161 17.0058 14.4514 19.0988C14.5384 19.593 14.9447 20 15.438 20H19.0653C19.5587 20 19.9649 19.593 19.9649 19.0988V15.4651C19.9649 14.9709 19.5587 14.564 19.0653 14.4767C16.976 14.0698 15.409 12.2093 15.409 10C15.409 7.7907 16.976 5.9593 19.0653 5.52326C19.5587 5.43605 19.9649 5.02907 19.9649 4.53488V0.901162C19.9649 0.406976 19.5587 0 19.0653 0H15.467Z" fill="#E4E7EC"/>
<path d="M61.3457 18.0814H58.5309L58.2407 15.436C57.8635 16.3953 57.2541 17.1221 56.4415 17.6453C55.629 18.1686 54.6424 18.4302 53.4816 18.4302C51.7985 18.4302 50.4927 17.936 49.5931 16.9767C48.6935 15.9884 48.2292 14.593 48.2292 12.7907V5.0872H51.5664V11.9477C51.5664 13.1977 51.8275 14.0988 52.3499 14.7093C52.8722 15.2907 53.6557 15.5814 54.7294 15.5814C55.7451 15.5814 56.5576 15.2326 57.109 14.5058C57.6893 13.8081 58.0085 12.8198 58.0085 11.5698V5.0872H61.3747L61.3457 18.0814Z" fill="#E4E7EC"/>
<path d="M74.114 14.2442H77.7414C77.219 15.6395 76.3775 16.686 75.1297 17.4128C73.9109 18.1105 72.3729 18.4884 70.4867 18.4884C68.1071 18.4884 66.308 17.936 65.0602 16.8023C63.8123 15.6686 63.2029 14.0407 63.2029 11.8895V11.686C63.2029 9.59302 63.8704 7.90698 65.2343 6.65698C66.5691 5.40698 68.3683 4.76744 70.6608 4.76744C72.8952 4.76744 74.6654 5.3779 75.9422 6.59883C77.219 7.81976 77.8865 9.4186 77.8865 11.4535V12.8198H66.424C66.5981 13.8081 67.0334 14.564 67.7299 15.0872C68.4263 15.5814 69.413 15.843 70.6608 15.843C71.5604 15.843 72.2858 15.7267 72.8662 15.4651C73.4176 15.1453 73.8528 14.7674 74.114 14.2442ZM70.7478 7.29651C69.5581 7.29651 68.6295 7.55814 67.904 8.08139C67.1785 8.60465 66.7142 9.33139 66.5111 10.3198H74.6364C74.4913 9.30232 74.085 8.57558 73.4466 8.05232C72.7791 7.55814 71.8796 7.29651 70.7478 7.29651Z" fill="#E4E7EC"/>
<path d="M92.686 14.0698C92.686 15.436 92.1347 16.5116 90.9739 17.2965C89.8422 18.0814 88.2462 18.4593 86.2439 18.4593C84.0384 18.4593 82.3263 18.0814 81.1366 17.3256C79.9178 16.5407 79.2213 15.3779 78.9601 13.8081H82.6455C82.7906 14.5058 83.1679 15.0291 83.7482 15.3488C84.3286 15.6686 85.2282 15.814 86.3599 15.814C87.4046 15.814 88.1591 15.6977 88.6234 15.436C89.1167 15.1744 89.3779 14.7674 89.3779 14.2151C89.3779 13.7791 89.1457 13.4593 88.6524 13.2558C88.1591 13.0523 87.0564 12.907 85.2862 12.7616C83.1388 12.5872 81.6299 12.2093 80.7593 11.6279C79.9178 11.0174 79.4825 10.1453 79.4825 8.98256C79.4825 7.67442 80.0048 6.59884 81.0785 5.87209C82.1522 5.11628 83.6612 4.73837 85.5764 4.73837C87.5787 4.73837 89.1457 5.08721 90.2775 5.81395C91.4092 6.51163 92.1637 7.61628 92.4539 9.0407H88.9716C88.8556 8.43023 88.5073 7.96512 87.956 7.67442C87.4046 7.38372 86.6211 7.23837 85.5764 7.23837C84.6188 7.23837 83.9224 7.35465 83.429 7.61628C82.9647 7.84884 82.7326 8.22674 82.7326 8.72093C82.7326 9.18605 82.9647 9.50581 83.4581 9.68023C83.9514 9.88372 85.0541 10.0291 86.7372 10.1744C89.0006 10.3779 90.5677 10.7558 91.4092 11.3372C92.2507 11.9767 92.686 12.8488 92.686 14.0698Z" fill="#E4E7EC"/>
<path d="M102.117 15.0872H103.481V18.0814H101.276C99.3023 18.0814 97.9384 17.7035 97.213 16.9186C96.4875 16.1337 96.1393 14.6512 96.1393 12.4128V7.99418H93.1503V5.26162C93.6146 5.26162 93.9629 5.26162 94.195 5.26162C94.4272 5.23255 94.6593 5.23255 94.8624 5.20348C95.3848 5.17441 95.762 5.0872 95.9361 4.85464C96.1393 4.62209 96.2844 4.18604 96.3424 3.57558C96.4004 3.31395 96.4294 3.02325 96.4294 2.61627C96.4585 2.23837 96.4585 1.86046 96.4585 1.59883H99.2733V5.0872H103.539V7.99418H99.2733V11.8605C99.2733 13.2849 99.4474 14.157 99.7666 14.5639C100.028 14.9128 100.84 15.0872 102.117 15.0872Z" fill="#E4E7EC"/>
<path d="M113.957 13.1105H113.58L108.588 6.88953V18.0814H105.425V1.97675H108.501L113.87 8.80814L119.354 1.97675H122.314V18.0523H119.122V6.80233L113.957 13.1105Z" fill="#E4E7EC"/>
<path d="M135.228 14.2442H138.855C138.333 15.6395 137.491 16.686 136.243 17.4128C135.024 18.1105 133.486 18.4884 131.6 18.4884C129.221 18.4884 127.421 17.936 126.174 16.8023C124.926 15.6686 124.316 14.0407 124.316 11.8895V11.686C124.316 9.59302 124.984 7.90698 126.348 6.65698C127.683 5.40698 129.482 4.76744 131.774 4.76744C134.009 4.76744 135.779 5.3779 137.056 6.59883C138.333 7.81976 139 9.4186 139 11.4535V12.8198H127.538C127.712 13.8081 128.147 14.564 128.843 15.0872C129.54 15.5814 130.526 15.843 131.774 15.843C132.674 15.843 133.399 15.7267 133.98 15.4651C134.56 15.1453 134.937 14.7674 135.228 14.2442ZM131.832 7.29651C130.643 7.29651 129.714 7.55814 128.988 8.08139C128.263 8.60465 127.799 9.33139 127.596 10.3198H135.721C135.576 9.30232 135.169 8.57558 134.531 8.05232C133.893 7.55814 132.993 7.29651 131.832 7.29651Z" fill="#E4E7EC"/>
<path d="M46.0238 10.2326C46.0238 9.85466 45.7046 9.56396 45.3564 9.56396H42.6576H37.7825V12.3256H42.6866C42.5706 13.343 42.1353 14.157 41.3808 14.7384C40.5973 15.2907 39.5526 15.5814 38.1887 15.5814C36.6217 15.5814 35.461 15.1744 34.6774 14.3605C33.923 13.5465 33.5457 12.2674 33.5747 10.5814V9.76745C33.5747 8.05233 33.952 6.74419 34.7645 5.8721C35.548 5.02908 36.7378 4.59303 38.3338 4.59303C39.5526 4.59303 40.4812 4.82559 41.1486 5.34884C41.8161 5.84303 42.2223 6.59884 42.3674 7.58722H45.9658C45.7626 5.66861 45.0081 4.21512 43.7023 3.19768C42.3964 2.18024 40.5973 1.65698 38.3338 1.65698C35.8092 1.65698 33.8069 2.35466 32.3559 3.77908C30.905 5.17443 30.1795 7.15117 30.1795 9.68024V10.6395C30.1795 13.1977 30.7889 15.1454 32.0077 16.4535C33.2555 17.7616 35.0547 18.4302 37.4052 18.4302C39.0303 18.4302 40.3361 18.0523 41.3227 17.2965C42.3384 16.5116 42.9478 15.4361 43.209 14.0116L43.4411 18.0814H46.0528V12.9651V10.2326H46.0238Z" fill="#E4E7EC"/>
</g>
<defs>
<clipPath id="clip0_8843_15818">
<rect width="139" height="20" fill="white"/>
</clipPath>
</defs>
</svg>
