<?xml version="1.0" encoding="UTF-8"?> <svg xmlns="http://www.w3.org/2000/svg" width="100" height="100" viewBox="0 0 100 100" fill="none"><rect width="100" height="100" fill="white"></rect><g clip-path="url(#clip0_8467_15259)"><path d="M32.4597 60.4424H33.6635V57.7764C33.9845 58.1688 34.6621 58.4095 35.3576 58.4095C36.6326 58.4095 38.0236 57.607 38.0236 55.7435C38.0236 54.0048 36.8734 53.1043 35.4913 53.1043C34.6978 53.1043 34.0112 53.3985 33.6367 53.9424V53.2558H32.4597V60.4424ZM33.5921 55.7435C33.5921 54.7805 34.2876 54.1386 35.1703 54.1386C36.0709 54.1386 36.7753 54.7805 36.7753 55.7613C36.7753 56.7332 36.0709 57.3573 35.206 57.3573C34.2876 57.3573 33.5921 56.6976 33.5921 55.7435ZM44.231 56.5727H42.947C42.635 57.1612 42.0376 57.393 41.4937 57.393C40.6823 57.393 40.0403 56.965 39.9066 56.1269H44.1686C44.1776 56.011 44.1776 55.8416 44.1776 55.7435C44.1417 54.0048 42.9382 53.0953 41.4669 53.0953C39.8709 53.0953 38.694 54.1653 38.694 55.7524C38.694 57.2771 39.7817 58.4095 41.4758 58.4095C42.9738 58.4095 43.8921 57.5357 44.231 56.5727ZM39.9244 55.1728C40.1027 54.415 40.7536 54.0672 41.458 54.0672C42.1357 54.0672 42.7777 54.415 42.9114 55.1728H39.9244ZM49.2056 55.3512H50.4007C50.151 53.9335 49.0274 53.0953 47.6365 53.0953C45.8978 53.0953 44.8992 54.3793 44.8992 55.7435C44.8992 57.1077 45.9067 58.4095 47.6275 58.4095C48.8222 58.4095 50.0349 57.8478 50.4272 56.1893H49.2056C48.965 57.081 48.3409 57.4287 47.6634 57.4287C46.6201 57.4287 46.0939 56.6173 46.0939 55.7167C46.0939 54.8519 46.5842 54.0672 47.69 54.0672C48.1982 54.0672 48.956 54.3347 49.2056 55.3512ZM56.3343 53.2558H50.8153V54.2634H52.9729V58.249H54.1766V54.2634H56.3343V53.2558ZM59.5266 54.094C58.403 54.094 57.9037 54.9143 57.9037 55.7524C57.9037 56.5638 58.403 57.4109 59.5266 57.4109C60.65 57.4109 61.1492 56.5638 61.1492 55.7524C61.1492 54.9143 60.65 54.094 59.5266 54.094ZM56.7001 55.7524C56.7001 54.3436 57.7165 53.0953 59.5266 53.0953C61.3368 53.0953 62.3532 54.3436 62.3532 55.7524C62.3532 57.1612 61.3368 58.4095 59.5266 58.4095C57.7165 58.4095 56.7001 57.1612 56.7001 55.7524ZM63.268 60.4424H64.472V57.7764C64.793 58.1688 65.4705 58.4095 66.166 58.4095C67.441 58.4095 68.8319 57.607 68.8319 55.7435C68.8319 54.0048 67.6817 53.1043 66.2997 53.1043C65.5061 53.1043 64.8196 53.3985 64.4451 53.9424V53.2558H63.268V60.4424ZM64.4007 55.7435C64.4007 54.7805 65.0961 54.1386 65.9788 54.1386C66.8793 54.1386 67.5837 54.7805 67.5837 55.7613C67.5837 56.7332 66.8793 57.3573 66.0143 57.3573C65.0961 57.3573 64.4007 56.6976 64.4007 55.7435ZM71.5798 58.3738H71.669C72.6589 58.3738 73.4881 57.8834 73.8446 57.1166V58.249H74.968V54.843C74.968 53.9246 74.6559 53.2558 73.274 53.2558H69.9127V54.2634H73.0244C73.5771 54.2634 73.8357 54.3526 73.8357 54.6022C73.8357 54.7894 73.6753 54.9321 73.2471 54.9321H71.5353C70.2158 54.9321 69.5648 55.6811 69.5648 56.653C69.5648 57.7229 70.4295 58.3738 71.5798 58.3738ZM70.724 56.6351C70.724 56.2428 71.0181 55.9486 71.6156 55.9486H72.3645C72.8727 55.9486 73.4792 55.9218 73.8178 55.7613C73.7019 56.7243 72.6231 57.3039 71.7759 57.3039H71.6422C71.0805 57.3039 70.724 57.0364 70.724 56.6351ZM76.088 58.249H77.2916V56.1537H79.922V58.249H81.1256V53.2558H79.922V55.1015H77.2916V53.2558H76.088V58.249ZM82.2931 58.249H85.271C86.4302 58.249 87.2594 57.6605 87.2594 56.5549C87.2594 55.4403 86.5285 54.8608 85.271 54.8608H83.4612V53.2558H82.2931V58.249ZM83.4612 57.2415V55.8594H85.2534C85.7793 55.8594 86.1361 56.0467 86.1361 56.5371C86.1361 56.9918 85.7793 57.2415 85.2534 57.2415H83.4612ZM87.9283 58.249H89.1319V53.2558H87.9283V58.249Z" fill="#FF0000"></path><path d="M73.039 47.3307H61.8228V42.3383H63.8928V46.3958H66.3711V42.3383H68.4412V46.3958H70.9491V42.3383H73.039V47.3307ZM38.713 42.3383H32.7416V43.1936H37.3893C37.7079 43.1936 37.9763 43.3229 37.9763 43.6808V43.9293H33.9755C33.1297 43.9297 32.7217 44.377 32.7217 44.9939V46.2173C32.7217 46.8338 33.1297 47.3311 33.9755 47.3311H39.9669V43.3431C39.9673 42.6369 39.4097 42.3383 38.713 42.3383ZM37.9768 44.8048V46.3861H35.3491C34.8016 46.3861 34.7122 46.1971 34.7122 45.8989V45.2921C34.7122 44.9939 34.8715 44.8048 35.3491 44.8048H37.9768ZM79.9761 42.3383H74.0047V43.1936H78.6523C78.971 43.1936 79.2395 43.3229 79.2395 43.6808V43.9293H75.1393C74.4126 43.9293 73.9847 44.377 73.9847 44.9935V46.2169C73.9847 46.7736 74.3927 47.3307 75.1393 47.3307H81.2299V43.3431C81.2299 42.6369 80.6729 42.3383 79.9761 42.3383ZM79.2395 44.8048V46.3861H76.5524C76.0647 46.3861 75.9748 46.0779 75.9748 45.9187V45.2921C75.9748 45.0234 76.1341 44.8048 76.5524 44.8048H79.2395ZM58.6875 44.6456V47.3307H60.7774V42.3383H58.6875L55.2438 46.157L55.5423 45.9086C55.5423 45.7195 55.5721 45.5405 55.5525 45.143V42.3383H53.4629V47.3307H55.5728L59.0164 43.5019L58.7277 43.7305C58.7077 43.9297 58.6875 44.3374 58.6875 44.6456ZM51.2136 42.3383H47.77V39.7926H45.6701V42.3383H42.2262C41.5194 42.3383 40.9126 42.6663 40.9126 43.4223V46.1971C40.9126 46.953 41.5199 47.3307 42.2262 47.3307H45.6701V49.4789H47.77V47.3307H51.2136C51.9203 47.3307 52.5175 46.953 52.5175 46.1971V43.4223C52.5172 42.6668 51.92 42.3383 51.2136 42.3383ZM45.6701 43.1936V46.3958H43.4805C43.1821 46.3958 42.9233 46.2366 42.9233 45.8488V43.731C42.9233 43.3629 43.1821 43.194 43.4805 43.194H45.6701V43.1936ZM50.5165 43.731V45.8492C50.5165 46.2371 50.2576 46.3963 49.9393 46.3963H47.7696V43.1936H49.9393C50.2583 43.1936 50.5165 43.3629 50.5165 43.731Z" fill="black"></path><path d="M24.4281 58.3704H12.8244C11.2762 58.3704 10.023 57.1152 10.023 55.569V43.9653C10.023 42.4191 11.2782 41.1639 12.8244 41.1639H24.4281C25.9763 41.1639 27.2295 42.4191 27.2295 43.9653V55.567C27.2295 57.1173 25.9763 58.3704 24.4281 58.3704Z" fill="url(#paint0_linear_8467_15259)"></path><path d="M22.7043 49.075C23.2038 48.5756 24.4837 46.4994 24.7115 45.7102C24.7229 45.6707 24.6433 45.5943 24.5871 45.6506L22.4908 47.7468C22.4261 47.8116 22.3294 47.8168 22.2739 47.7614L22.1047 47.5921C22.0498 47.5373 22.0566 47.4378 22.1192 47.3752L24.1863 45.3081C24.2341 45.2604 24.2384 45.1862 24.1979 45.1456L23.9795 44.9272C23.9372 44.8849 23.8647 44.891 23.817 44.9388L21.7499 47.0059C21.6851 47.0707 21.5884 47.0759 21.533 47.0204L21.3638 46.8512C21.3089 46.7963 21.3157 46.697 21.3783 46.6343L23.4454 44.5672C23.4931 44.5195 23.4976 44.4453 23.457 44.4047L23.2386 44.1864C23.1963 44.144 23.1238 44.1502 23.0761 44.1979L21.009 46.265C20.9442 46.3298 20.8475 46.335 20.7921 46.2795L20.6252 46.1126C20.5703 46.0577 20.577 45.9583 20.6397 45.8957L22.7359 43.7994C22.7938 43.7416 22.7514 43.6513 22.6763 43.675C21.8853 43.9 19.8131 45.1805 19.3114 45.6822C18.6654 46.3282 18.6592 46.977 18.8447 47.497C18.9428 47.7693 18.8849 48.1286 18.6566 48.3569L13.4872 53.5263C13.1153 53.8982 13.1153 54.501 13.4872 54.8729C13.8591 55.2447 14.4619 55.2447 14.8338 54.8729L20.0032 49.7035C20.2336 49.4731 20.6224 49.4488 20.8935 49.5458C21.4078 49.7256 22.0599 49.7195 22.7043 49.075Z" fill="white"></path><path d="M14.4719 46.5176C13.7899 45.8356 13.7075 45.104 13.8886 44.5499C13.8916 44.5522 13.8946 44.5548 13.8977 44.5578L17.0059 47.6661L16.2896 48.3353L14.4719 46.5176Z" fill="white" stroke="white" stroke-width="2.64212" stroke-linecap="round"></path><path d="M23.0481 54.8149L20.3111 52.0779L21.0038 51.3851L23.7408 54.1222C23.9321 54.3135 23.9321 54.6236 23.7408 54.8149C23.5495 55.0062 23.2394 55.0062 23.0481 54.8149Z" fill="white" stroke="white" stroke-width="2.64212" stroke-linecap="round"></path></g><defs><linearGradient id="paint0_linear_8467_15259" x1="18.6257" y1="58.3709" x2="18.6257" y2="41.1639" gradientUnits="userSpaceOnUse"><stop stop-color="#FF2100"></stop><stop offset="1" stop-color="#FF6A6A"></stop></linearGradient><clipPath id="clip0_8467_15259"><rect width="80" height="20.9129" fill="white" transform="translate(10 39.5436)"></rect></clipPath></defs></svg> 