<?xml version="1.0" encoding="UTF-8"?> <svg xmlns="http://www.w3.org/2000/svg" width="100" height="100" viewBox="0 0 100 100" fill="none"><rect width="100" height="100" fill="white"></rect><g clip-path="url(#clip0_8467_15269)"><path d="M19.4581 59.4581C24.6817 59.4581 28.9163 55.2236 28.9163 50C28.9163 44.7764 24.6817 40.5419 19.4581 40.5419C14.2345 40.5419 10 44.7764 10 50C10 55.2236 14.2345 59.4581 19.4581 59.4581Z" fill="#FF5742"></path><path d="M14.4138 53.2075C14.4138 52.7648 14.4138 52.3367 14.4138 51.923C14.4138 51.5052 14.4138 51.0398 14.4138 50.5269V49.9064C14.4138 49.4307 14.4138 48.9529 14.4138 48.473C14.4138 47.9931 14.4138 47.5071 14.4138 47.0148L15.9713 46.9217L16.052 48.0635H16.2071C16.3684 47.7284 16.5463 47.474 16.7407 47.3003C16.9352 47.1224 17.1337 47.0024 17.3364 46.9404C17.5391 46.8783 17.7335 46.8473 17.9197 46.8473C18.0148 46.8473 18.1203 46.8556 18.2362 46.8721C18.3561 46.8887 18.4678 46.9176 18.5712 46.959L18.4099 48.7585C18.2485 48.746 18.1038 48.7357 17.9756 48.7274C17.8473 48.7192 17.7108 48.715 17.566 48.715C17.4502 48.715 17.3302 48.7274 17.2061 48.7522C17.0861 48.7771 16.9683 48.8267 16.8524 48.9012C16.7366 48.9756 16.629 49.0791 16.5298 49.2114C16.4305 49.3438 16.3436 49.5155 16.2691 49.7265V50.6262C16.2691 51.0895 16.2691 51.5259 16.2691 51.9354C16.2691 52.3408 16.2691 52.7648 16.2691 53.2075H14.4138Z" fill="white"></path><path d="M22.6223 53.344C21.9191 53.344 21.3234 53.2055 20.8353 52.9283C20.3471 52.647 19.9748 52.2644 19.7183 51.7804C19.4619 51.2964 19.3336 50.7441 19.3336 50.1236C19.3336 49.499 19.4515 48.9405 19.6873 48.4482C19.9272 47.9518 20.2809 47.563 20.7484 47.2817C21.22 46.9963 21.8053 46.8535 22.5044 46.8535C22.7526 46.8535 22.9967 46.8722 23.2366 46.9094C23.4807 46.9466 23.7103 46.9983 23.9254 47.0645C24.1405 47.1307 24.3328 47.2093 24.5024 47.3003L24.3659 48.9012C24.1302 48.7647 23.913 48.6633 23.7144 48.5972C23.52 48.5268 23.3442 48.4813 23.187 48.4606C23.0298 48.4358 22.8891 48.4234 22.765 48.4234C22.2976 48.4234 21.9232 48.5723 21.6419 48.8702C21.3648 49.1639 21.2262 49.5631 21.2262 50.0677C21.2262 50.4111 21.2944 50.7152 21.431 50.9799C21.5716 51.2405 21.7763 51.4453 22.0452 51.5942C22.3182 51.7431 22.6533 51.8176 23.0505 51.8176C23.2035 51.8176 23.3566 51.8031 23.5097 51.7741C23.6627 51.7452 23.8137 51.7018 23.9626 51.6439C24.1156 51.5859 24.2604 51.5115 24.3969 51.4205L24.49 53.0214C24.3494 53.0834 24.186 53.1393 23.9998 53.1889C23.8178 53.2344 23.6131 53.2716 23.3855 53.3006C23.158 53.3296 22.9036 53.344 22.6223 53.344Z" fill="white"></path><path d="M33.6453 54.2615C33.6453 53.8081 33.6453 53.3695 33.6453 52.9458C33.6453 52.5179 33.6453 52.0412 33.6453 51.5158V50.8802C33.6453 50.3929 33.6453 49.9036 33.6453 49.412C33.6453 48.9205 33.6453 48.4227 33.6453 47.9185L35.2406 47.8231L35.3232 48.9926H35.4821C35.6474 48.6494 35.8296 48.3888 36.0287 48.2108C36.2279 48.0286 36.4313 47.9057 36.6389 47.8422C36.8465 47.7786 37.0456 47.7468 37.2363 47.7468C37.3338 47.7468 37.4418 47.7553 37.5604 47.7723C37.6833 47.7892 37.7977 47.8189 37.9036 47.8612L37.7384 49.7044C37.5732 49.6917 37.4249 49.6811 37.2935 49.6726C37.1622 49.6641 37.0224 49.6599 36.874 49.6599C36.7554 49.6599 36.6325 49.6726 36.5054 49.698C36.3825 49.7235 36.2618 49.7743 36.1431 49.8506C36.0245 49.9268 35.9143 50.0328 35.8126 50.1684C35.7109 50.3039 35.622 50.4798 35.5457 50.6959V51.6175C35.5457 52.092 35.5457 52.5391 35.5457 52.9585C35.5457 53.3738 35.5457 53.8081 35.5457 54.2615H33.6453Z" fill="#FF5742"></path><path d="M42.2057 54.4267C41.3879 54.4267 40.7185 54.2826 40.1973 53.9945C39.6804 53.7064 39.299 53.3102 39.0533 52.806C38.8118 52.3018 38.691 51.7234 38.691 51.0709C38.691 50.4184 38.8054 49.8421 39.0342 49.3421C39.263 48.8422 39.6041 48.4523 40.0575 48.1727C40.5151 47.8888 41.0829 47.7468 41.7608 47.7468C42.337 47.7468 42.8307 47.8507 43.2417 48.0583C43.6527 48.2617 43.9684 48.571 44.1887 48.9862C44.409 49.4014 44.5192 49.9248 44.5192 50.5561C44.5192 50.7255 44.5149 50.876 44.5065 51.0073C44.498 51.1387 44.4832 51.27 44.462 51.4014L42.8349 50.7849C42.8434 50.7298 42.8498 50.6726 42.854 50.6133C42.8582 50.554 42.8604 50.4989 42.8604 50.448C42.8604 50.0201 42.7586 49.6853 42.5553 49.4438C42.3561 49.1981 42.0976 49.0752 41.7799 49.0752C41.5384 49.0752 41.3244 49.1472 41.138 49.2913C40.9515 49.4311 40.8053 49.6281 40.6994 49.8824C40.5935 50.1366 40.5405 50.4396 40.5405 50.7912V51.1026C40.5405 51.4713 40.6062 51.787 40.7375 52.0497C40.8731 52.3124 41.0807 52.5136 41.3604 52.6535C41.6401 52.7933 41.9981 52.8632 42.4345 52.8632C42.604 52.8632 42.7989 52.8484 43.0193 52.8187C43.2438 52.7848 43.4705 52.7361 43.6993 52.6725C43.9324 52.6047 44.1484 52.52 44.3476 52.4183L44.4111 54.0199C44.2459 54.0962 44.0531 54.1661 43.8328 54.2297C43.6167 54.289 43.3709 54.3356 43.0955 54.3695C42.8201 54.4076 42.5235 54.4267 42.2057 54.4267ZM39.4219 51.4014V50.3845L43.3561 50.3019L44.462 50.6133V51.4014H39.4219Z" fill="#FF5742"></path><path d="M48.1084 54.4267C47.7949 54.4267 47.4962 54.4076 47.2123 54.3695C46.9284 54.3356 46.6678 54.2868 46.4305 54.2233C46.1933 54.1555 45.9856 54.0792 45.8077 53.9945L45.9284 52.3865C46.1149 52.5009 46.3225 52.6026 46.5513 52.6916C46.7843 52.7763 47.0216 52.842 47.2631 52.8886C47.5089 52.9352 47.7483 52.9585 47.9814 52.9585C48.1508 52.9585 48.3034 52.9437 48.439 52.914C48.5745 52.8801 48.6805 52.8229 48.7567 52.7424C48.833 52.6576 48.8711 52.5327 48.8711 52.3674C48.8711 52.2488 48.8288 52.1513 48.744 52.0751C48.6635 51.9988 48.5258 51.9289 48.3309 51.8653C48.1403 51.7975 47.8775 51.7213 47.5428 51.6365C47.1657 51.5391 46.8479 51.4162 46.5894 51.2679C46.331 51.1153 46.1361 50.9204 46.0047 50.6831C45.8734 50.4459 45.8077 50.1429 45.8077 49.7743C45.8077 49.1345 46.0153 48.6387 46.4305 48.287C46.85 47.9311 47.4199 47.7532 48.1402 47.7532C48.4538 47.7532 48.7546 47.7743 49.0428 47.8167C49.3309 47.8591 49.5913 47.9163 49.8246 47.9883C50.0619 48.0561 50.2609 48.126 50.4221 48.1981L50.2948 49.8188C50.1001 49.6959 49.8881 49.5942 49.6591 49.5137C49.4305 49.429 49.2101 49.3654 48.9983 49.323C48.7906 49.2807 48.619 49.2595 48.4834 49.2595C48.3479 49.2595 48.2229 49.2785 48.1084 49.3167C47.9983 49.3506 47.9114 49.4078 47.8479 49.4883C47.7843 49.5688 47.7525 49.6747 47.7525 49.8061C47.7525 49.9162 47.7801 50.0137 47.8351 50.0984C47.8902 50.1789 47.994 50.2552 48.1466 50.3272C48.2991 50.395 48.5216 50.4692 48.8139 50.5497C49.2716 50.6725 49.6465 50.806 49.9389 50.9501C50.2313 51.0899 50.4473 51.27 50.5872 51.4903C50.7314 51.7107 50.8031 52.003 50.8031 52.3674C50.8031 52.7742 50.7101 53.1343 50.5237 53.4479C50.3413 53.7572 50.0512 53.9987 49.6528 54.1724C49.2588 54.3419 48.744 54.4267 48.1084 54.4267Z" fill="#FF5742"></path><path d="M54.915 54.433C54.4445 54.433 54.0421 54.3631 53.7072 54.2233C53.3769 54.0793 53.1227 53.8505 52.9446 53.5369C52.7708 53.2233 52.6841 52.8102 52.6841 52.2975C52.6841 52.0221 52.6841 51.7403 52.6841 51.4522C52.6841 51.1599 52.6841 50.8548 52.6841 50.537C52.6841 50.2192 52.6841 49.8845 52.6841 49.5328C52.6841 49.1811 52.6841 48.8019 52.6841 48.3951C52.6841 47.9163 52.6841 47.4778 52.6841 47.0795C52.6841 46.6812 52.6841 46.2744 52.6841 45.8592L54.5525 45.5223C54.5525 45.8528 54.5525 46.1664 54.5525 46.463C54.5525 46.7553 54.5525 47.0583 54.5525 47.3718C54.5525 47.6812 54.5525 48.0222 54.5525 48.3951V51.7001C54.5525 52.0857 54.6226 52.3802 54.7625 52.5835C54.9064 52.7827 55.1397 52.8823 55.4616 52.8823C55.5972 52.8823 55.7454 52.859 55.9066 52.8123C56.0674 52.7615 56.2222 52.6831 56.3704 52.5772L56.4784 54.1152C56.3684 54.1831 56.2285 54.2402 56.0591 54.2869C55.8896 54.3335 55.7052 54.3695 55.5062 54.3949C55.3068 54.4203 55.1097 54.433 54.915 54.433ZM51.6544 49.3485V47.9184H56.4465V49.3485C56.0484 49.3485 55.6481 49.3485 55.2453 49.3485C54.8473 49.3485 54.4615 49.3485 54.0886 49.3485H51.6544Z" fill="#FF5742"></path><path d="M60.8887 54.4331C60.3125 54.4331 59.8105 54.342 59.3825 54.1598C58.9584 53.9776 58.6069 53.7297 58.3271 53.4161C58.052 53.1026 57.8444 52.7446 57.7045 52.342C57.5689 51.9353 57.5011 51.5116 57.5011 51.0709C57.5011 50.4396 57.628 49.8739 57.8826 49.3739C58.1407 48.8697 58.5178 48.4735 59.0136 48.1854C59.5137 47.893 60.1261 47.7468 60.8505 47.7468C61.4097 47.7468 61.8991 47.8316 62.3188 48.0011C62.7425 48.1663 63.094 48.4015 63.3738 48.7065C63.6576 49.0074 63.8696 49.3612 64.0095 49.7679C64.149 50.1705 64.2191 50.6048 64.2191 51.0709C64.2191 51.7107 64.0899 52.2848 63.8313 52.7933C63.5728 53.2975 63.1957 53.6979 62.6999 53.9945C62.2042 54.2869 61.6004 54.4331 60.8887 54.4331ZM60.8824 52.8823C61.2 52.8823 61.4605 52.7975 61.6639 52.628C61.8715 52.4543 62.0264 52.2297 62.1281 51.9543C62.2341 51.6789 62.2869 51.3844 62.2869 51.0709C62.2869 50.698 62.2274 50.3802 62.1088 50.1175C61.9902 49.8506 61.825 49.6472 61.613 49.5074C61.4014 49.3676 61.1555 49.2976 60.8761 49.2976C60.5624 49.2976 60.2976 49.376 60.0816 49.5328C59.8696 49.6896 59.7088 49.9014 59.5984 50.1684C59.4924 50.4353 59.4396 50.7361 59.4396 51.0709C59.4396 51.3844 59.4924 51.6789 59.5984 51.9543C59.7088 52.2297 59.8696 52.4543 60.0816 52.628C60.2976 52.7975 60.5644 52.8823 60.8824 52.8823Z" fill="#FF5742"></path><path d="M68.7842 54.4013C68.0642 54.4013 67.4538 54.2593 66.9541 53.9754C66.454 53.6873 66.0725 53.2954 65.81 52.7996C65.5472 52.3039 65.416 51.7382 65.416 51.1026C65.416 50.4628 65.5365 49.8908 65.7781 49.3866C66.024 48.8781 66.3862 48.4798 66.865 48.1917C67.3482 47.8993 67.9476 47.7532 68.6636 47.7532C68.9178 47.7532 69.1677 47.7722 69.4136 47.8104C69.6634 47.8485 69.8987 47.9015 70.119 47.9693C70.3393 48.037 70.5364 48.1175 70.7101 48.2108L70.5702 49.8506C70.3287 49.7107 70.1064 49.6069 69.903 49.5391C69.704 49.4671 69.5239 49.4205 69.3628 49.3993C69.202 49.3739 69.0577 49.3612 68.9304 49.3612C68.4516 49.3612 68.0682 49.5137 67.7801 49.8188C67.4964 50.1196 67.3545 50.5285 67.3545 51.0454C67.3545 51.3971 67.4242 51.7085 67.5641 51.9797C67.7084 52.2467 67.918 52.4564 68.1935 52.6089C68.4729 52.7615 68.8162 52.8377 69.2229 52.8377C69.3797 52.8377 69.5365 52.8229 69.6934 52.7933C69.8502 52.7636 70.0047 52.7191 70.1572 52.6598C70.3141 52.6005 70.4623 52.5242 70.6022 52.431L70.6975 54.0708C70.5533 54.1343 70.3862 54.1915 70.1955 54.2424C70.0091 54.289 69.799 54.3271 69.5661 54.3568C69.3332 54.3864 69.0727 54.4013 68.7842 54.4013Z" fill="#FF5742"></path><path d="M72.2341 54.2614C72.2341 53.808 72.2341 53.3695 72.2341 52.9458C72.2341 52.5178 72.2341 52.0412 72.2341 51.5157V47.9883C72.2341 47.4714 72.2341 46.9608 72.2341 46.4566C72.2341 45.9481 72.2341 45.4439 72.2341 44.944L74.1344 44.7787C74.1344 45.2787 74.1344 45.7935 74.1344 46.3232C74.1344 46.8486 74.1344 47.4036 74.1344 47.9883V51.5157C74.1344 52.0412 74.1344 52.5178 74.1344 52.9458C74.1344 53.3695 74.1344 53.808 74.1344 54.2614H72.2341Z" fill="#FF5742"></path><path d="M77.8329 54.433C77.1972 54.433 76.7165 54.2445 76.3901 53.8674C76.0638 53.4903 75.9007 52.9289 75.9007 52.1831C75.9007 51.8992 75.9007 51.6535 75.9007 51.4458C75.9007 51.2382 75.9007 51.0242 75.9007 50.8039C75.9007 50.3844 75.9007 50.0158 75.9007 49.698C75.9007 49.376 75.9007 49.0752 75.9007 48.7955C75.9007 48.5116 75.9007 48.2193 75.9007 47.9184L77.801 47.8612C77.801 48.3146 77.801 48.7616 77.801 49.2023C77.801 49.6387 77.801 50.0921 77.801 50.5624V51.6175C77.801 51.9861 77.8625 52.2657 77.9854 52.4564C78.1084 52.6428 78.3287 52.736 78.6463 52.736C78.8201 52.736 78.9813 52.7001 79.1295 52.628C79.282 52.5517 79.4195 52.4522 79.5425 52.3293C79.6654 52.2022 79.7777 52.0623 79.8794 51.9098V50.5624C79.8794 50.0921 79.8794 49.6472 79.8794 49.2277C79.8794 48.804 79.8794 48.3676 79.8794 47.9184H81.7797C81.7797 48.3676 81.7797 48.8125 81.7797 49.2531C81.7797 49.6938 81.7797 50.2107 81.7797 50.8039V51.5157C81.7797 52.0412 81.7797 52.5178 81.7797 52.9458C81.7797 53.3695 81.7797 53.808 81.7797 54.2614H80.1844L80.1017 53.2509H79.9366C79.7967 53.4543 79.6252 53.6471 79.4219 53.8292C79.2229 54.0072 78.9896 54.1513 78.7228 54.2614C78.4599 54.3758 78.1636 54.433 77.8329 54.433Z" fill="#FF5742"></path><path d="M87.3261 54.433C87.042 54.433 86.7835 54.3928 86.5506 54.3123C86.3216 54.236 86.1119 54.128 85.9212 53.9881C85.7348 53.8441 85.5677 53.6725 85.4191 53.4733H85.2859L85.0826 54.2614H83.5823C83.5823 53.808 83.5823 53.3695 83.5823 52.9458C83.5823 52.5178 83.5823 52.0412 83.5823 51.5157V47.9883C83.5823 47.4714 83.5823 46.9608 83.5823 46.4566C83.5823 45.9481 83.5823 45.4439 83.5823 44.944L85.483 44.7787C85.483 45.2787 85.483 45.7935 85.483 46.3232C85.483 46.8486 85.483 47.4036 85.483 47.9883V48.5667H85.6355C85.7454 48.3972 85.8834 48.251 86.0485 48.1282C86.2136 48.0053 86.4 47.9121 86.6077 47.8485C86.8197 47.7807 87.0526 47.7468 87.3068 47.7468C87.866 47.7468 88.3366 47.893 88.718 48.1854C89.0991 48.4777 89.3872 48.876 89.5823 49.3803C89.777 49.8845 89.8747 50.4522 89.8747 51.0836C89.8747 51.6726 89.7813 52.2212 89.5949 52.7297C89.4128 53.2382 89.133 53.6492 88.7559 53.9627C88.3787 54.2763 87.9023 54.433 87.3261 54.433ZM86.6077 52.8187C86.9088 52.8187 87.1567 52.736 87.3513 52.5708C87.5504 52.4056 87.6966 52.1937 87.79 51.9353C87.883 51.6726 87.9299 51.3929 87.9299 51.0963C87.9299 50.787 87.881 50.5031 87.7837 50.2446C87.6859 49.9819 87.5377 49.7722 87.3387 49.6154C87.1437 49.4586 86.8958 49.3803 86.5951 49.3803C86.4469 49.3803 86.3027 49.4036 86.1628 49.4502C86.0272 49.4925 85.9003 49.5561 85.7817 49.6408C85.667 49.7256 85.5677 49.8273 85.483 49.9459V52.1068C85.559 52.2509 85.6501 52.3759 85.7561 52.4818C85.8621 52.5877 85.985 52.6704 86.1245 52.7297C86.2688 52.789 86.43 52.8187 86.6077 52.8187Z" fill="#FF5742"></path></g><defs><clipPath id="clip0_8467_15269"><rect width="80" height="18.9163" fill="white" transform="translate(10 40.5419)"></rect></clipPath></defs></svg> 